# xmcd
#
# Track frame offsets: 
#        150
#        20487
#        41823
#        60241
#        77516
#        89948
#        109373
#        129026
#        149613
#        164019
#        182547
#        198251
#        215201
#        231921
#        248396
#        265396
#        291684
#        309741
#
# Disc length: 4360 seconds
#
# Revision: 0
# Processed by: cddbd v1.5.1PL0 Copyright (c) Steve Scherf et al.
# Submitted via: ExactAudioCopy v0.95a3
#
DISCID=13110612
DTITLE=Various Artist - Интер Дискотека 5
DYEAR=2001
DGENRE=Pop
TTITLE0=2+2 - Раз, Два, Три (Ремикс)
TTITLE1=G. Halliwell - It's A Rainig Men (Remix)
TTITLE2=Як-40 - Замерзаю
TTITLE3=Tarkan - Kuzu Kuzu
TTITLE4=Modern Talking - Last Exit In Brooklin (Remix)
TTITLE5=Андрей Губин - Улетает Лето
TTITLE6=Brandy and Ray J - another da in paradise
TTITLE7=Кристина Орбакайте - Без Тебя (Remix)
TTITLE8=Point Break - Do We Rock
TTITLE9=Турбомода - Лето
TTITLE10=Millane Fernandez - Boom Boom
TTITLE11=Таня Буланова - Любимые Цветы (Remix)
TTITLE12=Joy - Touch By Touch (Vs. Area 51!)
TTITLE13=Света - Твои Глаза
TTITLE14=Revoльvers - Крошка, Ты Супер
TTITLE15=Alizee - Moi... Lolita (Dance Remix)
TTITLE16=Валдай - Нелюбимая
TTITLE17=Г.Журавлева - Не Контролируй
EXTD=
EXTT0=
EXTT1=
EXTT2=
EXTT3=
EXTT4=
EXTT5=
EXTT6=
EXTT7=
EXTT8=
EXTT9=
EXTT10=
EXTT11=
EXTT12=
EXTT13=
EXTT14=
EXTT15=
EXTT16=
EXTT17=
PLAYORDER=
